<svg viewBox="0 0 330 200" xmlns="http://www.w3.org/2000/svg"><g><g><g><g><g><line x1="39.98800086975098" y1="178.56999969482422" x2="34.98800086975098" y2="178.56999969482422" style="visibility: inherit;" fill="rgb(0, 0, 0)" stroke="rgb(204, 204, 204)" stroke-width="1px"></line><line x1="39.98800086975098" y1="160.7129997253418" x2="34.98800086975098" y2="160.7129997253418" style="visibility: inherit;" fill="rgb(0, 0, 0)" stroke="rgb(204, 204, 204)" stroke-width="1px"></line><line x1="39.98800086975098" y1="142.8559997558594" x2="34.98800086975098" y2="142.8559997558594" style="visibility: inherit;" fill="rgb(0, 0, 0)" stroke="rgb(204, 204, 204)" stroke-width="1px"></line><line x1="39.98800086975098" y1="124.99899978637696" x2="34.98800086975098" y2="124.99899978637696" style="visibility: inherit;" fill="rgb(0, 0, 0)" stroke="rgb(204, 204, 204)" stroke-width="1px"></line><line x1="39.98800086975098" y1="107.14199981689453" x2="34.98800086975098" y2="107.14199981689453" style="visibility: inherit;" fill="rgb(0, 0, 0)" stroke="rgb(204, 204, 204)" stroke-width="1px"></line><line x1="39.98800086975098" y1="89.28499984741211" x2="34.98800086975098" y2="89.28499984741211" style="visibility: inherit;" fill="rgb(0, 0, 0)" stroke="rgb(204, 204, 204)" stroke-width="1px"></line><line x1="39.98800086975098" y1="71.4279998779297" x2="34.98800086975098" y2="71.4279998779297" style="visibility: inherit;" fill="rgb(0, 0, 0)" stroke="rgb(204, 204, 204)" stroke-width="1px"></line><line x1="39.98800086975098" y1="53.57099990844728" x2="34.98800086975098" y2="53.57099990844728" style="visibility: inherit;" fill="rgb(0, 0, 0)" stroke="rgb(204, 204, 204)" stroke-width="1px"></line><line x1="39.98800086975098" y1="35.71399993896483" x2="34.98800086975098" y2="35.71399993896483" style="visibility: inherit;" fill="rgb(0, 0, 0)" stroke="rgb(204, 204, 204)" stroke-width="1px"></line><line x1="39.98800086975098" y1="17.856999969482416" x2="34.98800086975098" y2="17.856999969482416" style="visibility: inherit;" fill="rgb(0, 0, 0)" stroke="rgb(204, 204, 204)" stroke-width="1px"></line><line x1="39.98800086975098" y1="0" x2="34.98800086975098" y2="0" style="visibility: inherit;" fill="rgb(0, 0, 0)" stroke="rgb(204, 204, 204)" stroke-width="1px"></line></g><g transform="translate(29.988000869750977, 0)"><text style="text-anchor: end; visibility: hidden; font-family: &quot;Helvetica Neue&quot;, sans-serif; font-size: 12px; font-weight: 200;" x="0" y="178.56999969482422" dx="0em" dy="0.3em" fill="rgb(50, 49, 63)" stroke="none" stroke-width="1px">-50</text><text style="text-anchor: end; visibility: inherit; font-family: &quot;Helvetica Neue&quot;, sans-serif; font-size: 12px; font-weight: 200;" x="0" y="160.7129997253418" dx="0em" dy="0.3em" fill="rgb(50, 49, 63)" stroke="none" stroke-width="1px">0</text><text style="text-anchor: end; visibility: hidden; font-family: &quot;Helvetica Neue&quot;, sans-serif; font-size: 12px; font-weight: 200;" x="0" y="142.8559997558594" dx="0em" dy="0.3em" fill="rgb(50, 49, 63)" stroke="none" stroke-width="1px">50</text><text style="text-anchor: end; visibility: inherit; font-family: &quot;Helvetica Neue&quot;, sans-serif; font-size: 12px; font-weight: 200;" x="0" y="124.99899978637696" dx="0em" dy="0.3em" fill="rgb(50, 49, 63)" stroke="none" stroke-width="1px">100</text><text style="text-anchor: end; visibility: hidden; font-family: &quot;Helvetica Neue&quot;, sans-serif; font-size: 12px; font-weight: 200;" x="0" y="107.14199981689453" dx="0em" dy="0.3em" fill="rgb(50, 49, 63)" stroke="none" stroke-width="1px">150</text><text style="text-anchor: end; visibility: inherit; font-family: &quot;Helvetica Neue&quot;, sans-serif; font-size: 12px; font-weight: 200;" x="0" y="89.28499984741211" dx="0em" dy="0.3em" fill="rgb(50, 49, 63)" stroke="none" stroke-width="1px">200</text><text style="text-anchor: end; visibility: hidden; font-family: &quot;Helvetica Neue&quot;, sans-serif; font-size: 12px; font-weight: 200;" x="0" y="71.4279998779297" dx="0em" dy="0.3em" fill="rgb(50, 49, 63)" stroke="none" stroke-width="1px">250</text><text style="text-anchor: end; visibility: inherit; font-family: &quot;Helvetica Neue&quot;, sans-serif; font-size: 12px; font-weight: 200;" x="0" y="53.57099990844728" dx="0em" dy="0.3em" fill="rgb(50, 49, 63)" stroke="none" stroke-width="1px">300</text><text style="text-anchor: end; visibility: hidden; font-family: &quot;Helvetica Neue&quot;, sans-serif; font-size: 12px; font-weight: 200;" x="0" y="35.71399993896483" dx="0em" dy="0.3em" fill="rgb(50, 49, 63)" stroke="none" stroke-width="1px">350</text><text style="text-anchor: end; visibility: inherit; font-family: &quot;Helvetica Neue&quot;, sans-serif; font-size: 12px; font-weight: 200;" x="0" y="17.856999969482416" dx="0em" dy="0.3em" fill="rgb(50, 49, 63)" stroke="none" stroke-width="1px">400</text><text style="text-anchor: end; visibility: hidden; font-family: &quot;Helvetica Neue&quot;, sans-serif; font-size: 12px; font-weight: 200;" x="0" y="0" dx="0em" dy="0.3em" fill="rgb(50, 49, 63)" stroke="none" stroke-width="1px">450</text></g><line x1="39.98800086975098" y1="0" x2="39.98800086975098" y2="178.56999969482422" fill="rgb(0, 0, 0)" stroke="rgb(204, 204, 204)" stroke-width="1px"></line></g></g><g transform="translate(39, 0)" clip-path="url(#clip_0)"><clipPath id="clip_0"><rect width="290" height="178"></rect></clipPath><g><g><g><line x1="0" y1="0" x2="0" y2="178.56999969482422" fill="rgb(0, 0, 0)" stroke="rgb(60, 60, 60)" stroke-width="1px" opacity="0.25"></line><line x1="24.167666594187416" y1="0" x2="24.167666594187416" y2="178.56999969482422" fill="rgb(0, 0, 0)" stroke="rgb(60, 60, 60)" stroke-width="1px" opacity="0.25"></line><line x1="48.33533318837483" y1="0" x2="48.33533318837483" y2="178.56999969482422" fill="rgb(0, 0, 0)" stroke="rgb(60, 60, 60)" stroke-width="1px" opacity="0.25"></line><line x1="72.50299978256226" y1="0" x2="72.50299978256226" y2="178.56999969482422" fill="rgb(0, 0, 0)" stroke="rgb(60, 60, 60)" stroke-width="1px" opacity="0.25"></line><line x1="96.67066637674967" y1="0" x2="96.67066637674967" y2="178.56999969482422" fill="rgb(0, 0, 0)" stroke="rgb(60, 60, 60)" stroke-width="1px" opacity="0.25"></line><line x1="120.8383329709371" y1="0" x2="120.8383329709371" y2="178.56999969482422" fill="rgb(0, 0, 0)" stroke="rgb(60, 60, 60)" stroke-width="1px" opacity="0.25"></line><line x1="145.0059995651245" y1="0" x2="145.0059995651245" y2="178.56999969482422" fill="rgb(0, 0, 0)" stroke="rgb(60, 60, 60)" stroke-width="1px" opacity="0.25"></line><line x1="169.17366615931195" y1="0" x2="169.17366615931195" y2="178.56999969482422" fill="rgb(0, 0, 0)" stroke="rgb(60, 60, 60)" stroke-width="1px" opacity="0.25"></line><line x1="193.34133275349933" y1="0" x2="193.34133275349933" y2="178.56999969482422" fill="rgb(0, 0, 0)" stroke="rgb(60, 60, 60)" stroke-width="1px" opacity="0.25"></line><line x1="217.50899934768677" y1="0" x2="217.50899934768677" y2="178.56999969482422" fill="rgb(0, 0, 0)" stroke="rgb(60, 60, 60)" stroke-width="1px" opacity="0.25"></line><line x1="241.6766659418742" y1="0" x2="241.6766659418742" y2="178.56999969482422" fill="rgb(0, 0, 0)" stroke="rgb(60, 60, 60)" stroke-width="1px" opacity="0.25"></line><line x1="265.8443325360616" y1="0" x2="265.8443325360616" y2="178.56999969482422" fill="rgb(0, 0, 0)" stroke="rgb(60, 60, 60)" stroke-width="1px" opacity="0.25"></line><line x1="290.011999130249" y1="0" x2="290.011999130249" y2="178.56999969482422" fill="rgb(0, 0, 0)" stroke="rgb(60, 60, 60)" stroke-width="1px" opacity="0.25"></line></g><g><line x1="0" y1="178.56999969482422" x2="290.011999130249" y2="178.56999969482422" fill="rgb(0, 0, 0)" stroke="rgb(60, 60, 60)" stroke-width="1px" opacity="0.25"></line><line x1="0" y1="160.7129997253418" x2="290.011999130249" y2="160.7129997253418" fill="rgb(0, 0, 0)" stroke="rgb(60, 60, 60)" stroke-width="1px" opacity="0.25"></line><line x1="0" y1="142.8559997558594" x2="290.011999130249" y2="142.8559997558594" fill="rgb(0, 0, 0)" stroke="rgb(60, 60, 60)" stroke-width="1px" opacity="0.25"></line><line x1="0" y1="124.99899978637696" x2="290.011999130249" y2="124.99899978637696" fill="rgb(0, 0, 0)" stroke="rgb(60, 60, 60)" stroke-width="1px" opacity="0.25"></line><line x1="0" y1="107.14199981689453" x2="290.011999130249" y2="107.14199981689453" fill="rgb(0, 0, 0)" stroke="rgb(60, 60, 60)" stroke-width="1px" opacity="0.25"></line><line x1="0" y1="89.28499984741211" x2="290.011999130249" y2="89.28499984741211" fill="rgb(0, 0, 0)" stroke="rgb(60, 60, 60)" stroke-width="1px" opacity="0.25"></line><line x1="0" y1="71.4279998779297" x2="290.011999130249" y2="71.4279998779297" fill="rgb(0, 0, 0)" stroke="rgb(60, 60, 60)" stroke-width="1px" opacity="0.25"></line><line x1="0" y1="53.57099990844728" x2="290.011999130249" y2="53.57099990844728" fill="rgb(0, 0, 0)" stroke="rgb(60, 60, 60)" stroke-width="1px" opacity="0.25"></line><line x1="0" y1="35.71399993896483" x2="290.011999130249" y2="35.71399993896483" fill="rgb(0, 0, 0)" stroke="rgb(60, 60, 60)" stroke-width="1px" opacity="0.25"></line><line x1="0" y1="17.856999969482416" x2="290.011999130249" y2="17.856999969482416" fill="rgb(0, 0, 0)" stroke="rgb(60, 60, 60)" stroke-width="1px" opacity="0.25"></line><line x1="0" y1="0" x2="290.011999130249" y2="0" fill="rgb(0, 0, 0)" stroke="rgb(60, 60, 60)" stroke-width="1px" opacity="0.25"></line></g></g></g><g><g><line x1="0" y1="160.7129997253418" x2="290.011999130249" y2="160.7129997253418" fill="rgb(0, 0, 0)" stroke="rgb(153, 153, 153)" stroke-width="1.5px"></line></g></g><g><g><line x1="24.167666594187416" y1="0" x2="24.167666594187416" y2="178.56999969482422" fill="rgb(0, 0, 0)" stroke="rgb(153, 153, 153)" stroke-width="1.5px"></line></g></g><g><g><g><g><g><path style="fill: none;" stroke="rgb(51, 187, 238)" stroke-width="2px" d="M26.64243565343221,160.32927869383823L29.117204712677005,160.28886046901232L31.59197377192179,160.28865296135945L34.066742831166586,160.1219863397256L36.54151189041138,159.8936353647979L39.01628094965617,159.79694965602548L41.49105000890096,159.6701508998764L43.965819068145755,158.94339625966182L46.44058812739054,158.35488020352915L48.91535718663533,157.83681525199333L51.390126245880126,157.69366715775556L53.86489530512492,157.3217225048611L56.33966436436971,156.88003246071693L58.8144334236145,156.44160531901778L61.289202482859295,156.16554163348113L63.76397154210408,155.87919571809982L66.23874060134888,155.42654293481198L68.71350966059367,155.50983924847043L71.18827871983846,154.91205508483446L73.66304777908326,154.88651589099993L76.13781683832805,154.3965239916222L78.61258589757284,153.86037598705292L81.08735495681763,153.40075360327114L83.56212401606243,152.84114131109857L86.03689307530722,152.35746540994L88.51166213455201,152.08778550107624L90.98643119379679,151.83513876040388L93.46120025304158,150.45183842135253L95.93596931228637,149.86806089656284L98.41073837153117,148.1059580193634L100.88550743077596,148.84425270766158L103.36027649002075,148.21990211493284L105.83504554926554,148.14167147434998L108.30981460851034,146.26668647755432L110.78458366775513,145.39269455659314L113.25935272699992,144.14527537163696L115.73412178624471,142.75600099199218L118.2088908454895,142.39886099260252L120.6836599047343,141.3595836488739L123.15842896397909,140.80244475936888L125.63319802322387,139.3488850708435L128.10796708246866,138.4703209993164L130.58273614171347,137.94532476425172L133.05750520095825,135.94534131262208L135.53227426020305,135.89534193068846L138.00704331944783,133.827501007251L140.48181237869264,131.61323137617796L142.95658143793742,131.14180668597413L145.4313504971822,131.97037137556762L147.906119556427,132.54893915549317L150.38088861567178,131.77037384783324L152.85565767491659,127.47398009113769L155.33042673416136,124.97042793248292L157.80519579340617,116.48121134588624L160.27996485265095,119.17047510532836L162.75473391189576,121.75974010090331L165.22950297114053,117.27406258049317L167.70427203038534,112.53838542565308L170.17904108963012,110.64197290081786L172.65381014887492,103.27417296956177L175.1285792081197,94.97423742191772L177.6033482673645,96.15280050980834L180.0781173266093,97.6027880354065L182.55288638585407,95.82780725200195L185.02765544509887,91.89569237102661L187.50242450434365,80.7779224461792L189.97719356358846,76.81367172266846L192.45196262283324,72.23513431472169L194.92673168207804,70.27443920576782L197.40150074132282,73.73869610994264L199.87626980056763,71.64228605737304L202.3510388598124,72.22085111253661L204.8258079190572,63.34234506020509L207.300576978302,55.767408724884035L209.7753460375468,57.153113666363524L212.25011509679157,55.631693781268325L214.72488415603635,53.11028625750123L217.19965321528116,50.588878733734134L219.67442227452594,51.07459480040893L222.14919133377074,52.94600490951538L224.62396039301552,56.84954248707277L227.09872945226033,53.16029108895873L229.5734985115051,50.11388733012694L232.0482675707499,47.317475031439216L234.5230366299947,39.09969105683595L236.9978056892395,39.09969105683595L239.47257474848428,42.64966352269286L241.9473438077291,41.535377569396985L244.42211286697386,39.581821336773686L246.8968819262187,42.771089814599605L249.37165098546345,42.65322751133422L251.84642004470822,40.181824819024655L254.32118910395306,37.296127520489506L256.79595816319784,36.98184257717895L259.27072722244264,36.381849993975834L261.7454962816874,33.65687005478517L264.2202653409322,37.07827735240477L266.695034400177,34.514014772558596" fill="none"></path></g><g><path style="fill: none;" stroke="rgb(204, 51, 17)" stroke-width="2px" d="M26.64243565343221,160.34207055716965L29.117204712677005,160.26259010233608L31.59197377192179,160.14532149915675L34.066742831166586,159.86542607454192L36.54151189041138,159.72794693270706L39.01628094965617,159.51750292307125L41.49105000890096,159.19417364333322L43.965819068145755,158.48235785114989L46.44058812739054,157.98815381037994L48.91535718663533,157.48244429194375L51.390126245880126,157.21758687115081L53.86489530512492,156.8787984841451L56.33966436436971,156.28764605052024L58.8144334236145,155.9822969640517L61.289202482859295,155.25724223470382L63.76397154210408,155.13348933668L66.23874060134888,154.29498369367712L68.71350966059367,154.19944672751654L71.18827871983846,153.30469416400507L73.66304777908326,152.60459927598035L76.13781683832805,152.5505393175385L78.61258589757284,151.7048297445133L81.08735495681763,150.60726020583118L83.56212401606243,150.3676494075575L86.03689307530722,148.74046516229149L88.51166213455201,148.93778152425895L90.98643119379679,147.86282750983017L93.46120025304158,147.91667289326782L95.93596931228637,146.3797804473928L98.41073837153117,146.19168740465392L100.88550743077596,144.28455975341797L103.36027649002075,143.880991172641L105.83504554926554,144.83098351652222L108.30981460851034,142.18457617554017L110.78458366775513,141.54172444911498L113.25935272699992,140.1203074150299L115.73412178624471,139.8488816149414L118.2088908454895,137.49889976501464L120.6836599047343,138.85960365314637L123.15842896397909,135.06320507816773L125.63319802322387,131.47751915732422L128.10796708246866,133.40964786190796L130.58273614171347,135.75962698707275L133.05750520095825,133.09179348043213L135.53227426020305,130.2489566875L138.00704331944783,127.5239794730713L140.48181237869264,122.9275867000122L142.95658143793742,120.25618103044434L145.4313504971822,116.20978418341676L147.906119556427,119.36690319489746L150.38088861567178,121.30617350057373L152.85565767491659,115.09550640440673L155.33042673416136,104.94201611276856L157.80519579340617,102.80632044228516L160.27996485265095,105.0205873485962L162.75473391189576,102.33489302731934L165.22950297114053,92.14926416838378L167.70427203038534,103.05989223964232L170.17904108963012,99.56348859388427L172.65381014887492,99.82419926757203L175.1285792081197,98.16350045021973L177.6033482673645,95.08852483749389L180.0781173266093,85.71003041535035L182.55288638585407,79.72079109971924L185.02765544509887,81.22792233310548L187.50242450434365,84.62075232730712L189.97719356358846,74.74225863630372L192.45196262283324,55.078131141833495L194.92673168207804,55.820977544982924L197.40150074132282,54.263852379187014L199.87626980056763,57.78882242931519L202.3510388598124,60.88879500824585L204.8258079190572,58.635242484021006L207.300576978302,52.260291315106215L209.7753460375468,48.22818856931153L212.25011509679157,49.242464859692376L214.72488415603635,52.599578674145505L217.19965321528116,48.4103225576477L219.67442227452594,52.753146258111585L222.14919133377074,51.871010023657234L224.62396039301552,50.988873789202884L227.09872945226033,50.94959362081299L229.5734985115051,41.62466256924441L232.0482675707499,37.424703587774644L234.5230366299947,38.93897369749146L236.9978056892395,43.29965003830566L239.47257474848428,41.90680622049561L241.9473438077291,40.83181133463745L244.42211286697386,42.98536509499513L246.8968819262187,40.02824633601077L249.37165098546345,40.36753369505004L251.84642004470822,38.65683004624026L254.32118910395306,40.871102402075195L256.79595816319784,42.678229927063L259.27072722244264,43.0567974544922L261.7454962816874,36.61398881376954L264.2202653409322,32.16760236079713L266.695034400177,32.335458596472165" fill="none"></path></g><g><path style="fill: none;" stroke="rgb(255, 112, 67)" stroke-width="2px" d="M26.64243565343221,160.3109499013357L29.117204712677005,160.0803720295488L31.59197377192179,159.40317957469674L34.066742831166586,158.30536429654552L36.54151189041138,157.64219333900732L39.01628094965617,156.8869720888293L41.49105000890096,156.3384880650894L43.965819068145755,156.06471317959767L46.44058812739054,155.33080331448076L48.91535718663533,154.79405722466166L51.390126245880126,154.77052822396183L53.86489530512492,153.85497823361365L56.33966436436971,153.36206538941667L58.8144334236145,152.46429719560794L61.289202482859295,151.85035519355964L63.76397154210408,151.14327129111203L66.23874060134888,152.14391423503486L68.71350966059367,151.93548561261122L71.18827871983846,148.87221149011503L73.66304777908326,148.22210372259508L76.13781683832805,148.77857095827738L78.61258589757284,149.07495830266527L81.08735495681763,148.45011044087914L83.56212401606243,147.61786596026104L86.03689307530722,145.76966673589578L88.51166213455201,146.21668709562073L90.98643119379679,144.39671912990474L93.46120025304158,144.35241586284485L95.93596931228637,144.13346216616705L98.41073837153117,142.62811020233954L100.88550743077596,140.7274456864685L103.36027649002075,143.42283607317373L105.83504554926554,143.4452812998047L108.30981460851034,142.53100241091005L110.78458366775513,140.11452547015455L113.25935272699992,139.73816772467347L115.73412178624471,139.0203155629669L118.2088908454895,135.33820167880248L120.6836599047343,137.44175605722657L123.15842896397909,129.63467817734985L125.63319802322387,128.07754756203002L128.10796708246866,132.09894199332885L130.58273614171347,134.26678168063356L133.05750520095825,132.96679230083618L135.53227426020305,129.66324730648194L138.00704331944783,132.2667982290039L140.48181237869264,126.68827318238525L142.95658143793742,124.58471607919921L145.4313504971822,127.40969478225708L147.906119556427,120.19189572156372L150.38088861567178,127.42755287213134L152.85565767491659,131.26323570264282L155.33042673416136,121.58474226413574L157.80519579340617,120.29546664835814L160.27996485265095,117.40620263641968L162.75473391189576,116.0169282567749L165.22950297114053,110.57411542901L167.70427203038534,110.81339857465821L170.17904108963012,114.3812291303894L172.65381014887492,112.02410295460815L175.1285792081197,111.45982110162964L177.6033482673645,104.41345043953856L180.0781173266093,103.41345735134277L182.55288638585407,99.10634983062744L185.02765544509887,95.25995051133422L187.50242450434365,93.14925725657959L189.97719356358846,88.70643479224853L192.45196262283324,86.55288103189088L194.92673168207804,85.4386005281189L197.40150074132282,83.49575805951538L199.87626980056763,83.14933727366943L202.3510388598124,80.10292806531372L204.8258079190572,84.0636148001831L207.300576978302,83.99218244068605L209.7753460375468,75.55653739895018L212.25011509679157,73.91012178378296L214.72488415603635,73.34583993080444L217.19965321528116,75.14582857946166L219.67442227452594,73.8886942557434L222.14919133377074,69.4208748252075L224.62396039301552,61.84236360219727L227.09872945226033,66.20661483070067L229.5734985115051,74.11369419920653L232.0482675707499,69.15301982566528L234.5230366299947,62.6780698928833L236.9978056892395,48.856747556884784L239.47257474848428,46.65677475180664L241.9473438077291,53.04957856107178L244.42211286697386,49.50317008385622L246.8968819262187,41.41038728884888L249.37165098546345,46.821056099792486L251.84642004470822,46.135342505383306L254.32118910395306,46.29248497703858L256.79595816319784,51.113874968798825L259.27072722244264,46.849622504162596L261.7454962816874,39.36397116868898L264.2202653409322,36.631852353167716L266.695034400177,41.37823509774171" fill="none"></path></g></g></g></g></g></g><g transform="translate(39, 178)" clip-path="url(#clip_1)"><clipPath id="clip_1"><rect width="290" height="21"></rect></clipPath><g><g><line x1="0" y1="0" x2="0" y2="5" style="visibility: inherit;" fill="rgb(0, 0, 0)" stroke="rgb(204, 204, 204)" stroke-width="1px"></line><line x1="24.167666594187416" y1="0" x2="24.167666594187416" y2="5" style="visibility: inherit;" fill="rgb(0, 0, 0)" stroke="rgb(204, 204, 204)" stroke-width="1px"></line><line x1="48.33533318837483" y1="0" x2="48.33533318837483" y2="5" style="visibility: inherit;" fill="rgb(0, 0, 0)" stroke="rgb(204, 204, 204)" stroke-width="1px"></line><line x1="72.50299978256226" y1="0" x2="72.50299978256226" y2="5" style="visibility: inherit;" fill="rgb(0, 0, 0)" stroke="rgb(204, 204, 204)" stroke-width="1px"></line><line x1="96.67066637674967" y1="0" x2="96.67066637674967" y2="5" style="visibility: inherit;" fill="rgb(0, 0, 0)" stroke="rgb(204, 204, 204)" stroke-width="1px"></line><line x1="120.8383329709371" y1="0" x2="120.8383329709371" y2="5" style="visibility: inherit;" fill="rgb(0, 0, 0)" stroke="rgb(204, 204, 204)" stroke-width="1px"></line><line x1="145.0059995651245" y1="0" x2="145.0059995651245" y2="5" style="visibility: inherit;" fill="rgb(0, 0, 0)" stroke="rgb(204, 204, 204)" stroke-width="1px"></line><line x1="169.17366615931195" y1="0" x2="169.17366615931195" y2="5" style="visibility: inherit;" fill="rgb(0, 0, 0)" stroke="rgb(204, 204, 204)" stroke-width="1px"></line><line x1="193.34133275349933" y1="0" x2="193.34133275349933" y2="5" style="visibility: inherit;" fill="rgb(0, 0, 0)" stroke="rgb(204, 204, 204)" stroke-width="1px"></line><line x1="217.50899934768677" y1="0" x2="217.50899934768677" y2="5" style="visibility: inherit;" fill="rgb(0, 0, 0)" stroke="rgb(204, 204, 204)" stroke-width="1px"></line><line x1="241.6766659418742" y1="0" x2="241.6766659418742" y2="5" style="visibility: inherit;" fill="rgb(0, 0, 0)" stroke="rgb(204, 204, 204)" stroke-width="1px"></line><line x1="265.8443325360616" y1="0" x2="265.8443325360616" y2="5" style="visibility: inherit;" fill="rgb(0, 0, 0)" stroke="rgb(204, 204, 204)" stroke-width="1px"></line><line x1="290.011999130249" y1="0" x2="290.011999130249" y2="5" style="visibility: inherit;" fill="rgb(0, 0, 0)" stroke="rgb(204, 204, 204)" stroke-width="1px"></line></g><g transform="translate(0, 8)"><text style="text-anchor: middle; visibility: hidden; font-family: &quot;Helvetica Neue&quot;, sans-serif; font-size: 12px; font-weight: 200;" x="0" y="0" dx="0em" dy="0.95em" fill="rgb(50, 49, 63)" stroke="none" stroke-width="1px">-1M</text><text style="text-anchor: middle; visibility: inherit; font-family: &quot;Helvetica Neue&quot;, sans-serif; font-size: 12px; font-weight: 200;" x="24.167666594187416" y="0" dx="0em" dy="0.95em" fill="rgb(50, 49, 63)" stroke="none" stroke-width="1px">0</text><text style="text-anchor: middle; visibility: hidden; font-family: &quot;Helvetica Neue&quot;, sans-serif; font-size: 12px; font-weight: 200;" x="48.33533318837483" y="0" dx="0em" dy="0.95em" fill="rgb(50, 49, 63)" stroke="none" stroke-width="1px">1M</text><text style="text-anchor: middle; visibility: inherit; font-family: &quot;Helvetica Neue&quot;, sans-serif; font-size: 12px; font-weight: 200;" x="72.50299978256226" y="0" dx="0em" dy="0.95em" fill="rgb(50, 49, 63)" stroke="none" stroke-width="1px">2M</text><text style="text-anchor: middle; visibility: hidden; font-family: &quot;Helvetica Neue&quot;, sans-serif; font-size: 12px; font-weight: 200;" x="96.67066637674967" y="0" dx="0em" dy="0.95em" fill="rgb(50, 49, 63)" stroke="none" stroke-width="1px">3M</text><text style="text-anchor: middle; visibility: inherit; font-family: &quot;Helvetica Neue&quot;, sans-serif; font-size: 12px; font-weight: 200;" x="120.8383329709371" y="0" dx="0em" dy="0.95em" fill="rgb(50, 49, 63)" stroke="none" stroke-width="1px">4M</text><text style="text-anchor: middle; visibility: hidden; font-family: &quot;Helvetica Neue&quot;, sans-serif; font-size: 12px; font-weight: 200;" x="145.0059995651245" y="0" dx="0em" dy="0.95em" fill="rgb(50, 49, 63)" stroke="none" stroke-width="1px">5M</text><text style="text-anchor: middle; visibility: inherit; font-family: &quot;Helvetica Neue&quot;, sans-serif; font-size: 12px; font-weight: 200;" x="169.17366615931195" y="0" dx="0em" dy="0.95em" fill="rgb(50, 49, 63)" stroke="none" stroke-width="1px">6M</text><text style="text-anchor: middle; visibility: hidden; font-family: &quot;Helvetica Neue&quot;, sans-serif; font-size: 12px; font-weight: 200;" x="193.34133275349933" y="0" dx="0em" dy="0.95em" fill="rgb(50, 49, 63)" stroke="none" stroke-width="1px">7M</text><text style="text-anchor: middle; visibility: inherit; font-family: &quot;Helvetica Neue&quot;, sans-serif; font-size: 12px; font-weight: 200;" x="217.50899934768677" y="0" dx="0em" dy="0.95em" fill="rgb(50, 49, 63)" stroke="none" stroke-width="1px">8M</text><text style="text-anchor: middle; visibility: hidden; font-family: &quot;Helvetica Neue&quot;, sans-serif; font-size: 12px; font-weight: 200;" x="241.6766659418742" y="0" dx="0em" dy="0.95em" fill="rgb(50, 49, 63)" stroke="none" stroke-width="1px">9M</text><text style="text-anchor: middle; visibility: inherit; font-family: &quot;Helvetica Neue&quot;, sans-serif; font-size: 12px; font-weight: 200;" x="265.8443325360616" y="0" dx="0em" dy="0.95em" fill="rgb(50, 49, 63)" stroke="none" stroke-width="1px">10M</text><text style="text-anchor: middle; visibility: hidden; font-family: &quot;Helvetica Neue&quot;, sans-serif; font-size: 12px; font-weight: 200;" x="290.011999130249" y="0" dx="0em" dy="0.95em" fill="rgb(50, 49, 63)" stroke="none" stroke-width="1px">11M</text></g><line x1="0" y1="0" x2="290.011999130249" y2="0" fill="rgb(0, 0, 0)" stroke="rgb(204, 204, 204)" stroke-width="1px"></line></g></g></g></g></svg>