<svg viewBox="0 0 330 200" xmlns="http://www.w3.org/2000/svg"><g><g><g><g><g><line x1="69.97600173950195" y1="178.56999969482422" x2="64.97600173950195" y2="178.56999969482422" style="visibility: inherit;" fill="rgb(0, 0, 0)" stroke="rgb(204, 204, 204)" stroke-width="1px"></line><line x1="69.97600173950195" y1="160.7129997253418" x2="64.97600173950195" y2="160.7129997253418" style="visibility: inherit;" fill="rgb(0, 0, 0)" stroke="rgb(204, 204, 204)" stroke-width="1px"></line><line x1="69.97600173950195" y1="142.8559997558594" x2="64.97600173950195" y2="142.8559997558594" style="visibility: inherit;" fill="rgb(0, 0, 0)" stroke="rgb(204, 204, 204)" stroke-width="1px"></line><line x1="69.97600173950195" y1="124.99899978637696" x2="64.97600173950195" y2="124.99899978637696" style="visibility: inherit;" fill="rgb(0, 0, 0)" stroke="rgb(204, 204, 204)" stroke-width="1px"></line><line x1="69.97600173950195" y1="107.14199981689453" x2="64.97600173950195" y2="107.14199981689453" style="visibility: inherit;" fill="rgb(0, 0, 0)" stroke="rgb(204, 204, 204)" stroke-width="1px"></line><line x1="69.97600173950195" y1="89.28499984741211" x2="64.97600173950195" y2="89.28499984741211" style="visibility: inherit;" fill="rgb(0, 0, 0)" stroke="rgb(204, 204, 204)" stroke-width="1px"></line><line x1="69.97600173950195" y1="71.4279998779297" x2="64.97600173950195" y2="71.4279998779297" style="visibility: inherit;" fill="rgb(0, 0, 0)" stroke="rgb(204, 204, 204)" stroke-width="1px"></line><line x1="69.97600173950195" y1="53.57099990844728" x2="64.97600173950195" y2="53.57099990844728" style="visibility: inherit;" fill="rgb(0, 0, 0)" stroke="rgb(204, 204, 204)" stroke-width="1px"></line><line x1="69.97600173950195" y1="35.71399993896483" x2="64.97600173950195" y2="35.71399993896483" style="visibility: inherit;" fill="rgb(0, 0, 0)" stroke="rgb(204, 204, 204)" stroke-width="1px"></line><line x1="69.97600173950195" y1="17.856999969482416" x2="64.97600173950195" y2="17.856999969482416" style="visibility: inherit;" fill="rgb(0, 0, 0)" stroke="rgb(204, 204, 204)" stroke-width="1px"></line><line x1="69.97600173950195" y1="0" x2="64.97600173950195" y2="0" style="visibility: inherit;" fill="rgb(0, 0, 0)" stroke="rgb(204, 204, 204)" stroke-width="1px"></line></g><g transform="translate(59.97600173950195, 0)"><text style="text-anchor: end; visibility: hidden; font-family: &quot;Helvetica Neue&quot;, sans-serif; font-size: 12px; font-weight: 200;" x="0" y="178.56999969482422" dx="0em" dy="0.3em" fill="rgb(50, 49, 63)" stroke="none" stroke-width="1px">-500</text><text style="text-anchor: end; visibility: inherit; font-family: &quot;Helvetica Neue&quot;, sans-serif; font-size: 12px; font-weight: 200;" x="0" y="160.7129997253418" dx="0em" dy="0.3em" fill="rgb(50, 49, 63)" stroke="none" stroke-width="1px">0</text><text style="text-anchor: end; visibility: hidden; font-family: &quot;Helvetica Neue&quot;, sans-serif; font-size: 12px; font-weight: 200;" x="0" y="142.8559997558594" dx="0em" dy="0.3em" fill="rgb(50, 49, 63)" stroke="none" stroke-width="1px">500</text><text style="text-anchor: end; visibility: inherit; font-family: &quot;Helvetica Neue&quot;, sans-serif; font-size: 12px; font-weight: 200;" x="0" y="124.99899978637696" dx="0em" dy="0.3em" fill="rgb(50, 49, 63)" stroke="none" stroke-width="1px">1e+3</text><text style="text-anchor: end; visibility: hidden; font-family: &quot;Helvetica Neue&quot;, sans-serif; font-size: 12px; font-weight: 200;" x="0" y="107.14199981689453" dx="0em" dy="0.3em" fill="rgb(50, 49, 63)" stroke="none" stroke-width="1px">1.5e+3</text><text style="text-anchor: end; visibility: inherit; font-family: &quot;Helvetica Neue&quot;, sans-serif; font-size: 12px; font-weight: 200;" x="0" y="89.28499984741211" dx="0em" dy="0.3em" fill="rgb(50, 49, 63)" stroke="none" stroke-width="1px">2e+3</text><text style="text-anchor: end; visibility: hidden; font-family: &quot;Helvetica Neue&quot;, sans-serif; font-size: 12px; font-weight: 200;" x="0" y="71.4279998779297" dx="0em" dy="0.3em" fill="rgb(50, 49, 63)" stroke="none" stroke-width="1px">2.5e+3</text><text style="text-anchor: end; visibility: inherit; font-family: &quot;Helvetica Neue&quot;, sans-serif; font-size: 12px; font-weight: 200;" x="0" y="53.57099990844728" dx="0em" dy="0.3em" fill="rgb(50, 49, 63)" stroke="none" stroke-width="1px">3e+3</text><text style="text-anchor: end; visibility: hidden; font-family: &quot;Helvetica Neue&quot;, sans-serif; font-size: 12px; font-weight: 200;" x="0" y="35.71399993896483" dx="0em" dy="0.3em" fill="rgb(50, 49, 63)" stroke="none" stroke-width="1px">3.5e+3</text><text style="text-anchor: end; visibility: inherit; font-family: &quot;Helvetica Neue&quot;, sans-serif; font-size: 12px; font-weight: 200;" x="0" y="17.856999969482416" dx="0em" dy="0.3em" fill="rgb(50, 49, 63)" stroke="none" stroke-width="1px">4e+3</text><text style="text-anchor: end; visibility: hidden; font-family: &quot;Helvetica Neue&quot;, sans-serif; font-size: 12px; font-weight: 200;" x="0" y="0" dx="0em" dy="0.3em" fill="rgb(50, 49, 63)" stroke="none" stroke-width="1px">4.5e+3</text></g><line x1="69.97600173950195" y1="0" x2="69.97600173950195" y2="178.56999969482422" fill="rgb(0, 0, 0)" stroke="rgb(204, 204, 204)" stroke-width="1px"></line></g></g><g transform="translate(69, 0)" clip-path="url(#clip_0)"><clipPath id="clip_0"><rect width="260" height="178"></rect></clipPath><g><g><g><line x1="0" y1="0" x2="0" y2="178.56999969482422" fill="rgb(0, 0, 0)" stroke="rgb(60, 60, 60)" stroke-width="1px" opacity="0.25"></line><line x1="21.668666521708168" y1="0" x2="21.668666521708168" y2="178.56999969482422" fill="rgb(0, 0, 0)" stroke="rgb(60, 60, 60)" stroke-width="1px" opacity="0.25"></line><line x1="43.337333043416336" y1="0" x2="43.337333043416336" y2="178.56999969482422" fill="rgb(0, 0, 0)" stroke="rgb(60, 60, 60)" stroke-width="1px" opacity="0.25"></line><line x1="65.00599956512451" y1="0" x2="65.00599956512451" y2="178.56999969482422" fill="rgb(0, 0, 0)" stroke="rgb(60, 60, 60)" stroke-width="1px" opacity="0.25"></line><line x1="86.67466608683267" y1="0" x2="86.67466608683267" y2="178.56999969482422" fill="rgb(0, 0, 0)" stroke="rgb(60, 60, 60)" stroke-width="1px" opacity="0.25"></line><line x1="108.34333260854086" y1="0" x2="108.34333260854086" y2="178.56999969482422" fill="rgb(0, 0, 0)" stroke="rgb(60, 60, 60)" stroke-width="1px" opacity="0.25"></line><line x1="130.01199913024902" y1="0" x2="130.01199913024902" y2="178.56999969482422" fill="rgb(0, 0, 0)" stroke="rgb(60, 60, 60)" stroke-width="1px" opacity="0.25"></line><line x1="151.6806656519572" y1="0" x2="151.6806656519572" y2="178.56999969482422" fill="rgb(0, 0, 0)" stroke="rgb(60, 60, 60)" stroke-width="1px" opacity="0.25"></line><line x1="173.34933217366535" y1="0" x2="173.34933217366535" y2="178.56999969482422" fill="rgb(0, 0, 0)" stroke="rgb(60, 60, 60)" stroke-width="1px" opacity="0.25"></line><line x1="195.01799869537354" y1="0" x2="195.01799869537354" y2="178.56999969482422" fill="rgb(0, 0, 0)" stroke="rgb(60, 60, 60)" stroke-width="1px" opacity="0.25"></line><line x1="216.68666521708172" y1="0" x2="216.68666521708172" y2="178.56999969482422" fill="rgb(0, 0, 0)" stroke="rgb(60, 60, 60)" stroke-width="1px" opacity="0.25"></line><line x1="238.35533173878986" y1="0" x2="238.35533173878986" y2="178.56999969482422" fill="rgb(0, 0, 0)" stroke="rgb(60, 60, 60)" stroke-width="1px" opacity="0.25"></line><line x1="260.02399826049805" y1="0" x2="260.02399826049805" y2="178.56999969482422" fill="rgb(0, 0, 0)" stroke="rgb(60, 60, 60)" stroke-width="1px" opacity="0.25"></line></g><g><line x1="0" y1="178.56999969482422" x2="260.02399826049805" y2="178.56999969482422" fill="rgb(0, 0, 0)" stroke="rgb(60, 60, 60)" stroke-width="1px" opacity="0.25"></line><line x1="0" y1="160.7129997253418" x2="260.02399826049805" y2="160.7129997253418" fill="rgb(0, 0, 0)" stroke="rgb(60, 60, 60)" stroke-width="1px" opacity="0.25"></line><line x1="0" y1="142.8559997558594" x2="260.02399826049805" y2="142.8559997558594" fill="rgb(0, 0, 0)" stroke="rgb(60, 60, 60)" stroke-width="1px" opacity="0.25"></line><line x1="0" y1="124.99899978637696" x2="260.02399826049805" y2="124.99899978637696" fill="rgb(0, 0, 0)" stroke="rgb(60, 60, 60)" stroke-width="1px" opacity="0.25"></line><line x1="0" y1="107.14199981689453" x2="260.02399826049805" y2="107.14199981689453" fill="rgb(0, 0, 0)" stroke="rgb(60, 60, 60)" stroke-width="1px" opacity="0.25"></line><line x1="0" y1="89.28499984741211" x2="260.02399826049805" y2="89.28499984741211" fill="rgb(0, 0, 0)" stroke="rgb(60, 60, 60)" stroke-width="1px" opacity="0.25"></line><line x1="0" y1="71.4279998779297" x2="260.02399826049805" y2="71.4279998779297" fill="rgb(0, 0, 0)" stroke="rgb(60, 60, 60)" stroke-width="1px" opacity="0.25"></line><line x1="0" y1="53.57099990844728" x2="260.02399826049805" y2="53.57099990844728" fill="rgb(0, 0, 0)" stroke="rgb(60, 60, 60)" stroke-width="1px" opacity="0.25"></line><line x1="0" y1="35.71399993896483" x2="260.02399826049805" y2="35.71399993896483" fill="rgb(0, 0, 0)" stroke="rgb(60, 60, 60)" stroke-width="1px" opacity="0.25"></line><line x1="0" y1="17.856999969482416" x2="260.02399826049805" y2="17.856999969482416" fill="rgb(0, 0, 0)" stroke="rgb(60, 60, 60)" stroke-width="1px" opacity="0.25"></line><line x1="0" y1="0" x2="260.02399826049805" y2="0" fill="rgb(0, 0, 0)" stroke="rgb(60, 60, 60)" stroke-width="1px" opacity="0.25"></line></g></g></g><g><g><line x1="0" y1="160.7129997253418" x2="260.02399826049805" y2="160.7129997253418" fill="rgb(0, 0, 0)" stroke="rgb(153, 153, 153)" stroke-width="1.5px"></line></g></g><g><g><line x1="21.668666521708168" y1="0" x2="21.668666521708168" y2="178.56999969482422" fill="rgb(0, 0, 0)" stroke="rgb(153, 153, 153)" stroke-width="1.5px"></line></g></g><g><g><g><g><g><path style="fill: none;" stroke="rgb(0, 153, 136)" stroke-width="2px" d="M23.88753797353109,153.80964582396211L26.106409425354006,151.5143385025369L28.32528087717692,150.89493253533374L30.544152328999836,149.62318694809065L32.763023780822756,149.95821604914164L34.98189523264567,148.94131090842345L37.20076668446859,149.14142723577922L39.41963813629151,148.93251864653664L41.63850958811442,148.37972330006926L43.85738103993734,148.48635631435235L46.07625249176025,148.04409584129223L48.29512394358317,148.12835420027912L50.51399539540609,148.04286751860147L52.732866847229005,146.41350346376888L54.951738299051925,146.295895108318L57.17060975087483,146.0413020701789L59.38948120269775,144.57242649468625L61.60835265452067,143.92983280321852L63.827224106343586,142.42371518128078L66.0460955581665,141.7766430710585L68.26496700998942,139.9629913760379L70.48383846181234,138.66853326301575L72.70270991363526,135.52937860712566L74.92158136545818,135.60036628547115L77.14045281728109,132.02906656281473L79.35932426910401,134.29143423692688L81.57819572092691,128.61739211490993L83.79706717274983,126.34088619594891L86.01593862457275,125.13678554908094L88.23481007639566,126.09409687605816L90.45368152821858,121.80937163997255L92.6725529800415,113.9063107504027L94.89142443186442,111.88460713129919L97.11029588368734,121.00436360741276L99.32916733551025,118.70266780910026L101.54803878733317,104.86458709715382L103.76691023915609,109.27293369337973L105.98578169097901,97.68045356035923L108.20465314280193,115.7819584093066L110.42352459462484,108.25627487114258L112.64239604644774,98.27605600709524L114.86126749827066,103.19592107583564L117.08013895009358,94.12552420754787L119.2990104019165,93.68882987821605L121.51788185373941,97.22788585776351L123.73675330556233,98.13365340772923L125.95562475738525,101.54255295805578L128.17449620920817,92.59598671162668L130.39336766103108,113.05394417519923L132.612239112854,108.0490229371706L134.83111056467692,97.0145304570051L137.04998201649985,91.63746341053043L139.26885346832273,86.33529026114456L141.48772492014567,71.70454795802347L143.70659637196857,70.25694514409116L145.9254678237915,78.40992991970853L148.1443392756144,86.4406360978786L150.36321072743735,77.9565731260497L152.58208217926025,71.89877770964466L154.8009536310832,58.364191883654144L157.0198250829061,79.69221597611083L159.23869653472903,57.33113653385713L161.4575679865519,52.4662898585774L163.6764394383748,58.22181544200295L165.89531089019775,60.24302206452525L168.11418234202065,46.63534286414796L170.3330537938436,47.85267059546598L172.5519252456665,54.68162160186172L174.77079669748943,53.717483111321926L176.98966814931234,36.845460611835875L179.20853960113527,50.83247899222894L181.42741105295818,31.257937311326344L183.6462825047811,36.07556931139379L185.865153956604,29.921016507947087L188.08402540842692,37.28541593627929L190.30289686024983,38.34089716689735L192.52176831207274,34.43327462621218L194.74063976389567,29.168772945756103L196.95951121571858,37.832487102824814L199.1783826675415,29.77433276259228L201.39725411936442,33.15449370359295L203.61612557118735,22.258471446335307L205.83499702301026,36.991699676039076L208.05386847483317,45.20242324745618L210.27273992665607,30.277694387708607L212.491611378479,29.34229450649471L214.7104828303019,24.365745669784786L216.92935428212485,29.46404994964601L219.14822573394775,30.027617914991453L221.3670971857707,26.769840202297274L223.5859686375936,32.303033929169175L225.8048400894165,31.87551223849357L228.02371154123944,34.81288410261422L230.2425829930623,22.22370784336738L232.46145444488525,28.933920263051988L234.68032589670815,21.898741833180566L236.8991973485311,27.67097347712442L239.118068800354,28.892625950622573" fill="none"></path></g><g><path style="fill: none;" stroke="rgb(238, 51, 119)" stroke-width="2px" d="M23.88753797353109,152.1136607942983L26.106409425354006,149.96989437889462L28.32528087717692,150.76498209811686L30.544152328999836,150.26157796671401L32.763023780822756,150.0445092603589L34.98189523264567,149.6306146491888L37.20076668446859,149.56275717738094L39.41963813629151,149.53584088885273L41.63850958811442,149.24018895771735L43.85738103993734,149.1281914320909L46.07625249176025,149.36798138346333L48.29512394358317,148.8362342781709L50.51399539540609,147.64971488536224L52.732866847229005,147.59497332771653L54.951738299051925,147.46362672247224L57.17060975087483,147.02617599922084L59.38948120269775,144.86760104752653L61.60835265452067,144.31532231592644L63.827224106343586,143.05857926802537L66.0460955581665,142.8670677389337L68.26496700998942,142.67127179413893L70.48383846181234,143.76064906351743L72.70270991363526,141.6754955475497L74.92158136545818,140.1812164713681L77.14045281728109,139.1179337023112L79.35932426910401,140.02934695905438L81.57819572092691,139.41214913894217L83.79706717274983,138.41321216848138L86.01593862457275,137.2704971388181L88.23481007639566,136.98688647572854L90.45368152821858,134.8383876937558L92.6725529800415,135.16731223811553L94.89142443186442,132.90838866311861L97.11029588368734,134.8569792895492L99.32916733551025,130.13406873438825L101.54803878733317,131.80166664901878L103.76691023915609,130.8734950163277L105.98578169097901,131.50677765123174L108.20465314280193,130.09609427192873L110.42352459462484,130.66167420150413L112.64239604644774,130.0093618290838L114.86126749827066,125.3718954493139L117.08013895009358,125.06844415954929L119.2990104019165,122.7441742533652L121.51788185373941,122.72367096458188L123.73675330556233,122.90687959903441L125.95562475738525,124.82352729607625L128.17449620920817,114.04709157145116L130.39336766103108,111.450519854209L132.612239112854,120.78159578894582L134.83111056467692,124.45159728877731L137.04998201649985,122.42662831494306L139.26885346832273,128.22224495591726L141.48772492014567,114.66374225936215L143.70659637196857,121.51996268343589L145.9254678237915,126.48536179421274L148.1443392756144,126.18216336235787L150.36321072743735,113.04815024137125L152.58208217926025,107.10244499249924L154.8009536310832,112.32052980804444L157.0198250829061,117.23063804916478L159.23869653472903,109.24222453620564L161.4575679865519,104.31464294159952L163.6764394383748,102.81271491364875L165.89531089019775,113.90969817446917L168.11418234202065,103.31627272162605L170.3330537938436,99.44756850094274L172.5519252456665,104.9916787141241L174.77079669748943,105.41178905227333L176.98966814931234,115.68440321196354L179.20853960113527,113.23732283479795L181.42741105295818,115.03136278314796L183.6462825047811,108.77307284242735L185.865153956604,116.1256751413852L188.08402540842692,121.49822126281876L190.30289686024983,113.77991231287457L192.52176831207274,108.95921114093736L194.74063976389567,116.5013522413291L196.95951121571858,101.45927115375474L199.1783826675415,102.15286040012799L201.39725411936442,100.57003963916115L203.61612557118735,100.48037535244916L205.83499702301026,84.67947203741184L208.05386847483317,87.00083843725324L210.27273992665607,82.06874027722515L212.491611378479,73.14796553758792L214.7104828303019,65.66167987753042L216.92935428212485,61.286915427487344L219.14822573394775,58.32513841545918L221.3670971857707,68.93154245446176L223.5859686375936,54.12423557644709L225.8048400894165,52.23172491073608L228.02371154123944,53.542008441211664L230.2425829930623,43.4272299326189L232.46145444488525,46.32383935784438L234.68032589670815,67.41613012453206L236.8991973485311,65.40670319290757L239.118068800354,52.11458194462769" fill="none"></path></g><g><path style="fill: none;" stroke="rgb(0, 119, 187)" stroke-width="2px" d="M23.88753797353109,154.78867731841322L26.106409425354006,150.01280502011767L28.32528087717692,150.412475283961L30.544152328999836,150.54824581272067L32.763023780822756,148.53622599761673L34.98189523264567,148.45522863374148L37.20076668446859,148.4434107961762L39.41963813629151,149.2339808600717L41.63850958811442,146.7341044052986L43.85738103993734,145.1090509238839L46.07625249176025,145.13455251600342L48.29512394358317,145.41004883798132L50.51399539540609,142.0597785356625L52.732866847229005,138.9818067746874L54.951738299051925,137.91633547682568L57.17060975087483,138.39912841887167L59.38948120269775,138.22759266464823L61.60835265452067,138.21317976379396L63.827224106343586,138.8304778551462L66.0460955581665,136.95765958905974L68.26496700998942,135.9987504616702L70.48383846181234,136.45252795857536L72.70270991363526,136.3547002850365L74.92158136545818,135.8009589012172L77.14045281728109,139.48981139418055L79.35932426910401,137.08380298886857L81.57819572092691,135.4234158842843L83.79706717274983,135.22331808530987L86.01593862457275,135.5393708541789L88.23481007639566,134.20624291944551L90.45368152821858,132.58608856003173L92.6725529800415,132.20557446265957L94.89142443186442,133.84554765065275L97.11029588368734,133.43286828331603L99.32916733551025,132.08338959702365L101.54803878733317,127.69558770596282L103.76691023915609,139.47826930252546L105.98578169097901,146.49397222382422L108.20465314280193,136.0566026075674L110.42352459462484,130.56691134021588L112.64239604644774,131.13287927589417L114.86126749827066,128.74262435431993L117.08013895009358,129.3824485977333L119.2990104019165,130.4275277770996L121.51788185373941,128.7380532936588L123.73675330556233,132.76944760134435L125.95562475738525,132.17647400494562L128.17449620920817,134.9908435748429L130.39336766103108,127.92532655542372L132.612239112854,131.0767252016493L134.83111056467692,134.1001908244119L137.04998201649985,133.02558612446617L139.26885346832273,128.7199630540657L141.48772492014567,134.43460412926032L143.70659637196857,134.2180967238686L145.9254678237915,127.207628615244L148.1443392756144,129.90759741946766L150.36321072743735,126.98362484475281L152.58208217926025,123.14980629637316L154.8009536310832,125.53986067546728L157.0198250829061,121.30936692158878L159.23869653472903,126.68409721220806L161.4575679865519,125.99899178466796L163.6764394383748,118.31787038592975L165.89531089019775,124.07936428794861L168.11418234202065,119.70408976246696L170.3330537938436,120.03681589471083L172.5519252456665,124.0374683480788L174.77079669748943,135.24307151960227L176.98966814931234,138.77101265016972L179.20853960113527,135.6838573514906L181.42741105295818,128.72466272349124L183.6462825047811,130.43463831590583L185.865153956604,128.289901885245L188.08402540842692,121.341488595362L190.30289686024983,125.5693011834736L192.52176831207274,119.94896520955822L194.74063976389567,118.12354908230677L196.95951121571858,106.9634298171997L199.1783826675415,106.60983854778446L201.39725411936442,85.50189674840868L203.61612557118735,84.59593301558198L205.83499702301026,80.31659190912582L208.05386847483317,107.35321028503944L210.27273992665607,72.06815763220675L212.491611378479,77.47296057560668L214.7104828303019,113.73208293136452L216.92935428212485,100.90097832756042L219.14822573394775,83.04049066277146L221.3670971857707,61.69351966556198L223.5859686375936,74.10132704963051L225.8048400894165,54.85933711620643L228.02371154123944,65.15653952780777L230.2425829930623,39.25530112236589L232.46145444488525,41.83231558817661L234.68032589670815,37.71870104344896L236.8991973485311,42.44471128781362L239.118068800354,39.06806419983431" fill="none"></path></g></g></g></g></g></g><g transform="translate(69, 178)" clip-path="url(#clip_1)"><clipPath id="clip_1"><rect width="260" height="21"></rect></clipPath><g><g><line x1="0" y1="0" x2="0" y2="5" style="visibility: inherit;" fill="rgb(0, 0, 0)" stroke="rgb(204, 204, 204)" stroke-width="1px"></line><line x1="21.668666521708168" y1="0" x2="21.668666521708168" y2="5" style="visibility: inherit;" fill="rgb(0, 0, 0)" stroke="rgb(204, 204, 204)" stroke-width="1px"></line><line x1="43.337333043416336" y1="0" x2="43.337333043416336" y2="5" style="visibility: inherit;" fill="rgb(0, 0, 0)" stroke="rgb(204, 204, 204)" stroke-width="1px"></line><line x1="65.00599956512451" y1="0" x2="65.00599956512451" y2="5" style="visibility: inherit;" fill="rgb(0, 0, 0)" stroke="rgb(204, 204, 204)" stroke-width="1px"></line><line x1="86.67466608683267" y1="0" x2="86.67466608683267" y2="5" style="visibility: inherit;" fill="rgb(0, 0, 0)" stroke="rgb(204, 204, 204)" stroke-width="1px"></line><line x1="108.34333260854086" y1="0" x2="108.34333260854086" y2="5" style="visibility: inherit;" fill="rgb(0, 0, 0)" stroke="rgb(204, 204, 204)" stroke-width="1px"></line><line x1="130.01199913024902" y1="0" x2="130.01199913024902" y2="5" style="visibility: inherit;" fill="rgb(0, 0, 0)" stroke="rgb(204, 204, 204)" stroke-width="1px"></line><line x1="151.6806656519572" y1="0" x2="151.6806656519572" y2="5" style="visibility: inherit;" fill="rgb(0, 0, 0)" stroke="rgb(204, 204, 204)" stroke-width="1px"></line><line x1="173.34933217366535" y1="0" x2="173.34933217366535" y2="5" style="visibility: inherit;" fill="rgb(0, 0, 0)" stroke="rgb(204, 204, 204)" stroke-width="1px"></line><line x1="195.01799869537354" y1="0" x2="195.01799869537354" y2="5" style="visibility: inherit;" fill="rgb(0, 0, 0)" stroke="rgb(204, 204, 204)" stroke-width="1px"></line><line x1="216.68666521708172" y1="0" x2="216.68666521708172" y2="5" style="visibility: inherit;" fill="rgb(0, 0, 0)" stroke="rgb(204, 204, 204)" stroke-width="1px"></line><line x1="238.35533173878986" y1="0" x2="238.35533173878986" y2="5" style="visibility: inherit;" fill="rgb(0, 0, 0)" stroke="rgb(204, 204, 204)" stroke-width="1px"></line><line x1="260.02399826049805" y1="0" x2="260.02399826049805" y2="5" style="visibility: inherit;" fill="rgb(0, 0, 0)" stroke="rgb(204, 204, 204)" stroke-width="1px"></line></g><g transform="translate(0, 8)"><text style="text-anchor: middle; visibility: hidden; font-family: &quot;Helvetica Neue&quot;, sans-serif; font-size: 12px; font-weight: 200;" x="0" y="0" dx="0em" dy="0.95em" fill="rgb(50, 49, 63)" stroke="none" stroke-width="1px">-1M</text><text style="text-anchor: middle; visibility: inherit; font-family: &quot;Helvetica Neue&quot;, sans-serif; font-size: 12px; font-weight: 200;" x="21.668666521708168" y="0" dx="0em" dy="0.95em" fill="rgb(50, 49, 63)" stroke="none" stroke-width="1px">0</text><text style="text-anchor: middle; visibility: hidden; font-family: &quot;Helvetica Neue&quot;, sans-serif; font-size: 12px; font-weight: 200;" x="43.337333043416336" y="0" dx="0em" dy="0.95em" fill="rgb(50, 49, 63)" stroke="none" stroke-width="1px">1M</text><text style="text-anchor: middle; visibility: inherit; font-family: &quot;Helvetica Neue&quot;, sans-serif; font-size: 12px; font-weight: 200;" x="65.00599956512451" y="0" dx="0em" dy="0.95em" fill="rgb(50, 49, 63)" stroke="none" stroke-width="1px">2M</text><text style="text-anchor: middle; visibility: hidden; font-family: &quot;Helvetica Neue&quot;, sans-serif; font-size: 12px; font-weight: 200;" x="86.67466608683267" y="0" dx="0em" dy="0.95em" fill="rgb(50, 49, 63)" stroke="none" stroke-width="1px">3M</text><text style="text-anchor: middle; visibility: inherit; font-family: &quot;Helvetica Neue&quot;, sans-serif; font-size: 12px; font-weight: 200;" x="108.34333260854086" y="0" dx="0em" dy="0.95em" fill="rgb(50, 49, 63)" stroke="none" stroke-width="1px">4M</text><text style="text-anchor: middle; visibility: hidden; font-family: &quot;Helvetica Neue&quot;, sans-serif; font-size: 12px; font-weight: 200;" x="130.01199913024902" y="0" dx="0em" dy="0.95em" fill="rgb(50, 49, 63)" stroke="none" stroke-width="1px">5M</text><text style="text-anchor: middle; visibility: inherit; font-family: &quot;Helvetica Neue&quot;, sans-serif; font-size: 12px; font-weight: 200;" x="151.6806656519572" y="0" dx="0em" dy="0.95em" fill="rgb(50, 49, 63)" stroke="none" stroke-width="1px">6M</text><text style="text-anchor: middle; visibility: hidden; font-family: &quot;Helvetica Neue&quot;, sans-serif; font-size: 12px; font-weight: 200;" x="173.34933217366535" y="0" dx="0em" dy="0.95em" fill="rgb(50, 49, 63)" stroke="none" stroke-width="1px">7M</text><text style="text-anchor: middle; visibility: inherit; font-family: &quot;Helvetica Neue&quot;, sans-serif; font-size: 12px; font-weight: 200;" x="195.01799869537354" y="0" dx="0em" dy="0.95em" fill="rgb(50, 49, 63)" stroke="none" stroke-width="1px">8M</text><text style="text-anchor: middle; visibility: hidden; font-family: &quot;Helvetica Neue&quot;, sans-serif; font-size: 12px; font-weight: 200;" x="216.68666521708172" y="0" dx="0em" dy="0.95em" fill="rgb(50, 49, 63)" stroke="none" stroke-width="1px">9M</text><text style="text-anchor: middle; visibility: inherit; font-family: &quot;Helvetica Neue&quot;, sans-serif; font-size: 12px; font-weight: 200;" x="238.35533173878986" y="0" dx="0em" dy="0.95em" fill="rgb(50, 49, 63)" stroke="none" stroke-width="1px">10M</text><text style="text-anchor: middle; visibility: hidden; font-family: &quot;Helvetica Neue&quot;, sans-serif; font-size: 12px; font-weight: 200;" x="260.02399826049805" y="0" dx="0em" dy="0.95em" fill="rgb(50, 49, 63)" stroke="none" stroke-width="1px">11M</text></g><line x1="0" y1="0" x2="260.02399826049805" y2="0" fill="rgb(0, 0, 0)" stroke="rgb(204, 204, 204)" stroke-width="1px"></line></g></g></g></g></svg>